<?xml version="1.0" encoding="UTF-8"?>
<svg xmlns="http://www.w3.org/2000/svg" width="241" height="40" viewBox="0 0 241 40" fill="none">
  <path d="M43.0527 6.03906C43.9715 6.03908 44.9072 6.13939 45.8594 6.33984C46.8116 6.54032 47.6054 6.83257 48.2402 7.2168L46.9365 9.99902C46.285 9.61478 45.6253 9.35533 44.957 9.22168C44.3056 9.07135 43.6708 8.99611 43.0527 8.99609C42.1841 8.99609 41.5494 9.11383 41.1484 9.34766C40.7476 9.58148 40.547 9.88163 40.5469 10.249C40.5469 10.5832 40.6886 10.8339 40.9727 11.001C41.2734 11.168 41.6659 11.3021 42.1504 11.4023C42.6348 11.5026 43.1615 11.5942 43.7295 11.6777C44.3141 11.7446 44.8988 11.8536 45.4834 12.0039C46.0679 12.1542 46.5939 12.3714 47.0615 12.6553C47.546 12.9226 47.9395 13.2987 48.2402 13.7832C48.5407 14.2508 48.6904 14.8687 48.6904 15.6367C48.6904 16.4719 48.4405 17.2157 47.9395 17.8672C47.4383 18.502 46.7111 19.0036 45.7588 19.3711C44.8234 19.7386 43.6791 19.9218 42.3262 19.9219C41.1736 19.9219 40.0623 19.7887 38.9932 19.5215C37.9408 19.2375 37.1054 18.8863 36.4873 18.4688L37.79 15.6621C38.4081 16.0463 39.1346 16.3637 39.9697 16.6143C40.8217 16.8481 41.658 16.9648 42.4766 16.9648C43.3785 16.9648 44.0134 16.8568 44.3809 16.6396C44.765 16.4225 44.957 16.1215 44.957 15.7373C44.957 15.42 44.8065 15.1865 44.5059 15.0361C44.2219 14.8691 43.8378 14.7437 43.3535 14.6602C42.869 14.5766 42.3337 14.4927 41.749 14.4092C41.1812 14.3257 40.6051 14.2166 40.0205 14.083C39.4358 13.9327 38.9005 13.7156 38.416 13.4316C37.9317 13.1477 37.5389 12.7636 37.2383 12.2793C36.9543 11.7948 36.8125 11.1679 36.8125 10.3994C36.8126 9.54763 37.0548 8.79594 37.5391 8.14453C38.0403 7.49298 38.7588 6.98277 39.6943 6.61523C40.6299 6.23099 41.7497 6.03906 43.0527 6.03906ZM56.3652 6.03906C57.284 6.03906 58.2197 6.13939 59.1719 6.33984C60.1241 6.54031 60.9179 6.83258 61.5527 7.2168L60.25 9.99902C59.5985 9.61478 58.9378 9.35533 58.2695 9.22168C57.6181 9.07138 56.9833 8.99609 56.3652 8.99609C55.4966 8.9961 54.8619 9.11378 54.4609 9.34766C54.0602 9.58147 53.8595 9.88167 53.8594 10.249C53.8594 10.583 54.0013 10.8339 54.2852 11.001C54.5858 11.168 54.9785 11.3021 55.4629 11.4023C55.9474 11.5026 56.474 11.5942 57.042 11.6777C57.6267 11.7446 58.2112 11.8536 58.7959 12.0039C59.3806 12.1543 59.9072 12.3713 60.375 12.6553C60.8594 12.9226 61.2521 13.2988 61.5527 13.7832C61.8532 14.2509 62.0038 14.8686 62.0039 15.6367C62.0039 16.472 61.7531 17.2157 61.252 17.8672C60.7508 18.502 60.0236 19.0036 59.0713 19.3711C58.1358 19.7385 56.9916 19.9219 55.6387 19.9219C54.4859 19.9219 53.3749 19.7888 52.3057 19.5215C51.2532 19.2375 50.4179 18.8864 49.7998 18.4688L51.1025 15.6621C51.7207 16.0464 52.4479 16.3637 53.2832 16.6143C54.1352 16.8481 54.9705 16.9648 55.7891 16.9648C56.691 16.9648 57.3258 16.8568 57.6934 16.6396C58.0776 16.4225 58.2695 16.1216 58.2695 15.7373C58.2695 15.4199 58.119 15.1865 57.8184 15.0361C57.5344 14.8691 57.1504 14.7437 56.666 14.6602C56.1816 14.5766 55.6471 14.4927 55.0625 14.4092C54.4945 14.3256 53.9177 14.2167 53.333 14.083C52.7484 13.9327 52.2139 13.7156 51.7295 13.4316C51.2451 13.1477 50.8525 12.7637 50.5518 12.2793C50.2677 11.7948 50.126 11.1679 50.126 10.3994C50.126 9.54751 50.3681 8.796 50.8525 8.14453C51.3537 7.49299 52.0723 6.98277 53.0078 6.61523C53.9432 6.23115 55.0624 6.03907 56.3652 6.03906ZM70.6055 6.03906C71.9252 6.03907 73.1116 6.32359 74.1641 6.8916C75.2332 7.44291 76.0772 8.24445 76.6953 9.29688C77.3134 10.3327 77.6221 11.5778 77.6221 13.0312C77.6221 13.1815 77.6134 13.3573 77.5967 13.5576C77.58 13.7411 77.5636 13.9162 77.5469 14.083H67.3477C67.4264 14.442 67.5507 14.7766 67.7236 15.0859C68.0577 15.6372 68.5169 16.0636 69.1016 16.3643C69.703 16.6483 70.4051 16.79 71.207 16.79C71.9252 16.79 72.5514 16.681 73.0859 16.4639C73.6372 16.2467 74.1388 15.9207 74.5898 15.4863L76.6699 17.7422C76.0518 18.4439 75.2744 18.9868 74.3389 19.3711C73.4034 19.7385 72.3258 19.9219 71.1064 19.9219C69.5696 19.9219 68.2163 19.6219 67.0469 19.0205C65.8941 18.4191 65.0001 17.6002 64.3652 16.5645C63.7304 15.512 63.4131 14.3169 63.4131 12.9805C63.4131 11.6274 63.7227 10.4332 64.3408 9.39746C64.9757 8.34497 65.836 7.52612 66.9219 6.94141C68.0077 6.34005 69.2356 6.03906 70.6055 6.03906ZM118.791 6.03906C120.111 6.03906 121.297 6.32359 122.35 6.8916C123.419 7.4429 124.263 8.24443 124.881 9.29688C125.499 10.3327 125.808 11.5778 125.808 13.0312C125.808 13.1815 125.8 13.3573 125.783 13.5576C125.767 13.7411 125.749 13.9162 125.732 14.083H115.533C115.612 14.442 115.736 14.7765 115.909 15.0859C116.243 15.6372 116.702 16.0636 117.287 16.3643C117.889 16.6483 118.591 16.79 119.393 16.79C120.111 16.79 120.738 16.681 121.272 16.4639C121.824 16.2467 122.324 15.9206 122.775 15.4863L124.855 17.7422C124.237 18.4438 123.461 18.9869 122.525 19.3711C121.59 19.7386 120.512 19.9219 119.292 19.9219C117.755 19.9218 116.402 19.6219 115.232 19.0205C114.08 18.4191 113.187 17.6001 112.552 16.5645C111.917 15.512 111.599 14.317 111.599 12.9805C111.599 11.6274 111.908 10.4331 112.526 9.39746C113.161 8.34496 114.022 7.52613 115.107 6.94141C116.193 6.34002 117.421 6.03908 118.791 6.03906ZM132.319 7.6709C132.639 7.32093 132.997 7.02658 133.397 6.79102C134.249 6.28989 135.244 6.03906 136.38 6.03906C137.649 6.03914 138.785 6.32373 139.787 6.8916C140.806 7.4596 141.609 8.26113 142.193 9.29688C142.795 10.3326 143.096 11.5606 143.096 12.9805C143.096 14.3838 142.795 15.6039 142.193 16.6396C141.609 17.6754 140.806 18.4856 139.787 19.0703C138.785 19.6381 137.649 19.9218 136.38 19.9219C135.194 19.9219 134.174 19.672 133.322 19.1709C132.873 18.9069 132.482 18.5689 132.145 18.1611V19.7217H128.41V1.12793H132.319V7.6709ZM150.098 6.54102H153.456V9.54785H150.098V15.0361C150.098 15.604 150.248 16.0469 150.549 16.3643C150.849 16.6648 151.259 16.8154 151.776 16.8154C152.395 16.8154 152.921 16.6476 153.355 16.3135L154.408 19.0703C154.007 19.3543 153.522 19.5713 152.954 19.7217C152.403 19.8553 151.827 19.9219 151.226 19.9219C149.639 19.9219 148.402 19.5216 147.517 18.7197C146.631 17.9011 146.188 16.6897 146.188 15.0859V9.54785H144.108V6.54102H146.188V3.25781H150.098V6.54102ZM8.16699 14.5098L12.3047 2.18066H16.0635L20.0693 14.6006L24.1572 2.18066H28.042L22.3027 19.7217H17.9424L14.0752 7.83691L10.0986 19.7217H5.73828L0 2.18066H4.20996L8.16699 14.5098ZM34.1621 19.7217H30.2529V6.24023H34.1621V19.7217ZM88.4189 6.03906C89.4882 6.03906 90.4411 6.25606 91.2764 6.69043C92.1283 7.10806 92.7958 7.76023 93.2803 8.64551C93.7648 9.51424 94.0078 10.634 94.0078 12.0039V19.7217H90.0986V12.6045C90.0986 11.5188 89.8555 10.717 89.3711 10.1992C88.9034 9.68155 88.2356 9.42295 87.3672 9.42285C86.7491 9.42285 86.1887 9.55594 85.6875 9.82324C85.2031 10.0738 84.8191 10.4665 84.5352 11.001C84.2679 11.5355 84.1338 12.2205 84.1338 13.0557V19.7217H80.2246V6.24023H83.959V7.84375C84.346 7.41219 84.8043 7.05163 85.3369 6.76562C86.2389 6.28125 87.2664 6.0391 88.4189 6.03906ZM101.887 16.4141H110.683V19.7217H97.8271V2.18066H101.887V16.4141ZM135.703 9.24707C135.052 9.24707 134.466 9.39753 133.948 9.69824C133.431 9.99894 133.021 10.4254 132.721 10.9766C132.42 11.5277 132.27 12.1956 132.27 12.9805C132.27 13.7489 132.42 14.4174 132.721 14.9854C133.021 15.5366 133.43 15.963 133.948 16.2637C134.466 16.5644 135.052 16.7148 135.703 16.7148C136.354 16.7148 136.931 16.5643 137.432 16.2637C137.95 15.963 138.359 15.5367 138.66 14.9854C138.977 14.4174 139.136 13.7488 139.136 12.9805C139.136 12.1957 138.977 11.5277 138.66 10.9766C138.359 10.4253 137.95 9.99896 137.432 9.69824C136.931 9.39762 136.354 9.24712 135.703 9.24707ZM70.6309 8.99609C69.9627 8.99609 69.3694 9.14667 68.8516 9.44727C68.3504 9.73127 67.9578 10.1412 67.6738 10.6758C67.4907 11.0098 67.3678 11.3854 67.3027 11.8027H73.9385C73.8751 11.3783 73.7509 10.994 73.5625 10.6504C73.2785 10.1325 72.8859 9.73127 72.3848 9.44727C71.8837 9.14661 71.299 8.99615 70.6309 8.99609ZM118.816 8.99609C118.148 8.99609 117.555 9.14662 117.037 9.44727C116.536 9.73127 116.143 10.1412 115.859 10.6758C115.676 11.0097 115.553 11.3854 115.488 11.8027H122.124C122.061 11.3782 121.936 10.994 121.748 10.6504C121.464 10.1325 121.072 9.73127 120.57 9.44727C120.069 9.14663 119.485 8.99612 118.816 8.99609ZM32.207 0C32.9253 0 33.5099 0.200711 33.9609 0.601562C34.412 0.985809 34.6377 1.48733 34.6377 2.10547C34.6376 2.7568 34.4119 3.29914 33.9609 3.7334C33.5266 4.15106 32.9421 4.36035 32.207 4.36035C31.4887 4.36032 30.9042 4.15103 30.4531 3.7334C30.0023 3.31588 29.7765 2.7985 29.7764 2.18066C29.7764 1.56261 30.0022 1.04458 30.4531 0.626953C30.9042 0.209325 31.4887 3.16374e-05 32.207 0Z" fill="#003B7C"></path>
  <path d="M165.448 1.87988C166.835 1.87991 168.104 2.1047 169.257 2.55566C170.426 3.00674 171.437 3.64233 172.289 4.46094C173.158 5.27953 173.835 6.24019 174.319 7.34277C174.804 8.42858 175.046 9.63153 175.046 10.9512C175.046 12.2542 174.804 13.4657 174.319 14.585C173.835 15.6875 173.158 16.6482 172.289 17.4668C171.437 18.2686 170.426 18.8947 169.257 19.3457C168.104 19.7968 166.843 20.0225 165.473 20.0225C164.086 20.0224 162.8 19.7967 161.614 19.3457C160.445 18.8946 159.425 18.26 158.557 17.4414C157.705 16.6228 157.036 15.6622 156.552 14.5596C156.084 13.457 155.851 12.2542 155.851 10.9512C155.851 9.64819 156.084 8.44531 156.552 7.34277C157.036 6.24015 157.713 5.27955 158.582 4.46094C159.451 3.64236 160.469 3.00673 161.639 2.55566C162.808 2.10459 164.078 1.87988 165.448 1.87988ZM233.836 6.03906C235.156 6.03906 236.342 6.32359 237.395 6.8916C238.464 7.4429 239.308 8.24443 239.926 9.29688C240.544 10.3327 240.853 11.5778 240.853 13.0312C240.853 13.1815 240.845 13.3573 240.828 13.5576C240.811 13.7411 240.794 13.9162 240.777 14.083H230.579C230.658 14.4419 230.781 14.7766 230.954 15.0859C231.288 15.6372 231.748 16.0635 232.333 16.3643C232.934 16.6481 233.636 16.79 234.438 16.79C235.156 16.79 235.783 16.681 236.317 16.4639C236.869 16.2467 237.369 15.9206 237.82 15.4863L239.9 17.7422C239.282 18.4437 238.506 18.9869 237.57 19.3711C236.635 19.7386 235.556 19.9219 234.337 19.9219C232.8 19.9218 231.447 19.6219 230.277 19.0205C229.125 18.4191 228.231 17.6001 227.597 16.5645C226.962 15.512 226.645 14.317 226.645 12.9805C226.645 11.6274 226.953 10.4331 227.571 9.39746C228.206 8.34496 229.066 7.52613 230.152 6.94141C231.238 6.34001 232.466 6.03909 233.836 6.03906ZM186.016 6.03906C187.085 6.03907 188.037 6.25621 188.872 6.69043C189.724 7.10808 190.392 7.76011 190.877 8.64551C191.361 9.51424 191.604 10.634 191.604 12.0039V19.7217H187.694V12.6045C187.694 11.5188 187.452 10.717 186.968 10.1992C186.5 9.68134 185.832 9.42285 184.963 9.42285C184.345 9.42287 183.785 9.55601 183.284 9.82324C182.8 10.0738 182.415 10.4664 182.131 11.001C181.864 11.5355 181.731 12.2205 181.73 13.0557V19.7217H177.821V6.24023H181.555V7.84473C181.942 7.41278 182.401 7.05182 182.934 6.76562C183.836 6.28131 184.863 6.03906 186.016 6.03906ZM199.057 19.7217H195.147V1.12793H199.057V19.7217ZM206.594 19.7217H202.685V6.24023H206.594V19.7217ZM218.417 6.03906C219.486 6.0391 220.438 6.25619 221.273 6.69043C222.125 7.10809 222.794 7.76007 223.278 8.64551C223.763 9.51424 224.005 10.634 224.005 12.0039V19.7217H220.096V12.6045C220.096 11.5189 219.854 10.717 219.369 10.1992C218.901 9.68133 218.233 9.42286 217.364 9.42285C216.746 9.42285 216.187 9.55604 215.686 9.82324C215.201 10.0738 214.816 10.4664 214.532 11.001C214.265 11.5355 214.132 12.2205 214.132 13.0557V19.7217H210.223V6.24023H213.956V7.84473C214.343 7.41286 214.801 7.05179 215.334 6.76562C216.236 6.28114 217.264 6.03906 218.417 6.03906ZM165.448 5.33789C164.663 5.33789 163.936 5.47098 163.268 5.73828C162.616 6.00557 162.04 6.39046 161.539 6.8916C161.038 7.39279 160.645 7.98594 160.361 8.6709C160.094 9.35583 159.96 10.1159 159.96 10.9512C159.96 11.7697 160.094 12.5298 160.361 13.2314C160.645 13.9163 161.029 14.5096 161.514 15.0107C162.015 15.5118 162.599 15.8958 163.268 16.1631C163.936 16.4304 164.663 16.5645 165.448 16.5645C166.233 16.5644 166.952 16.4304 167.604 16.1631C168.272 15.8958 168.856 15.5118 169.357 15.0107C169.859 14.5096 170.242 13.9163 170.51 13.2314C170.794 12.5465 170.936 11.7864 170.936 10.9512C170.936 10.1159 170.794 9.35581 170.51 8.6709C170.243 7.98603 169.859 7.39275 169.357 6.8916C168.873 6.39041 168.296 6.00558 167.628 5.73828C166.96 5.47109 166.233 5.33792 165.448 5.33789ZM233.861 8.99609C233.193 8.99609 232.6 9.14659 232.082 9.44727C231.581 9.73127 231.188 10.1412 230.904 10.6758C230.721 11.0097 230.598 11.3854 230.533 11.8027H237.169C237.106 11.3782 236.981 10.994 236.793 10.6504C236.509 10.1325 236.116 9.73127 235.615 9.44727C235.114 9.14664 234.529 8.99611 233.861 8.99609ZM204.64 0C205.358 3.30008e-05 205.943 0.200642 206.394 0.601562C206.845 0.985807 207.07 1.48734 207.07 2.10547C207.07 2.75672 206.844 3.29917 206.394 3.7334C205.959 4.15102 205.375 4.36032 204.64 4.36035C203.921 4.36035 203.337 4.15106 202.886 3.7334C202.435 3.31585 202.209 2.79859 202.209 2.18066C202.209 1.56253 202.435 1.04461 202.886 0.626953C203.337 0.209297 203.921 0 204.64 0Z" fill="#EC4A70"></path>
  <path d="M67.4147 31.4013V33.4618H71.0312V34.9098H67.4147V37.7499H65.6064V29.9534H71.5112V31.4013H67.4147Z" fill="#4F4F5B"></path>
  <path d="M74.1667 32.5485C74.375 32.2589 74.6541 32.0399 75.0038 31.8914C75.361 31.7429 75.7703 31.6686 76.2317 31.6686V33.2725C76.0382 33.2576 75.908 33.2502 75.841 33.2502C75.3424 33.2502 74.9517 33.3913 74.669 33.6735C74.3862 33.9482 74.2448 34.364 74.2448 34.9209V37.7499H72.5035V31.7577H74.1667V32.5485Z" fill="#4F4F5B"></path>
  <path d="M83.0949 34.7761C83.0949 34.7984 83.0837 34.9543 83.0614 35.2439H78.5185C78.6003 35.6152 78.7938 35.9085 79.0989 36.1238C79.404 36.3391 79.7835 36.4468 80.2374 36.4468C80.55 36.4468 80.8253 36.4023 81.0634 36.3131C81.309 36.2166 81.5359 36.0681 81.7443 35.8676L82.6708 36.87C82.1052 37.516 81.2792 37.839 80.1928 37.839C79.5156 37.839 78.9166 37.7091 78.3957 37.4492C77.8748 37.1819 77.473 36.8144 77.1902 36.3466C76.9074 35.8788 76.766 35.3479 76.766 34.7538C76.766 34.1672 76.9037 33.64 77.179 33.1722C77.4618 32.697 77.845 32.3295 78.3287 32.0696C78.8199 31.8023 79.3668 31.6686 79.9695 31.6686C80.5574 31.6686 81.0895 31.7949 81.5657 32.0473C82.042 32.2998 82.414 32.6636 82.6819 33.1388C82.9572 33.6066 83.0949 34.1524 83.0949 34.7761ZM79.9807 32.9829C79.5863 32.9829 79.2552 33.0943 78.9873 33.317C78.7194 33.5398 78.5557 33.8442 78.4962 34.2304H81.4541C81.3946 33.8517 81.2309 33.5509 80.963 33.3282C80.6951 33.098 80.3677 32.9829 79.9807 32.9829Z" fill="#4F4F5B"></path>
  <path d="M84.2542 31.7577H85.9955V37.7499H84.2542V31.7577ZM85.1248 30.9224C84.8049 30.9224 84.5444 30.8296 84.3435 30.6439C84.1426 30.4583 84.0421 30.2281 84.0421 29.9534C84.0421 29.6786 84.1426 29.4485 84.3435 29.2628C84.5444 29.0772 84.8049 28.9844 85.1248 28.9844C85.4448 28.9844 85.7053 29.0735 85.9062 29.2517C86.1071 29.4299 86.2075 29.6527 86.2075 29.92C86.2075 30.2096 86.1071 30.4509 85.9062 30.6439C85.7053 30.8296 85.4448 30.9224 85.1248 30.9224Z" fill="#4F4F5B"></path>
  <path d="M93.4939 34.7761C93.4939 34.7984 93.4828 34.9543 93.4604 35.2439H88.9175C88.9993 35.6152 89.1928 35.9085 89.4979 36.1238C89.803 36.3391 90.1825 36.4468 90.6364 36.4468C90.949 36.4468 91.2243 36.4023 91.4624 36.3131C91.708 36.2166 91.935 36.0681 92.1433 35.8676L93.0698 36.87C92.5042 37.516 91.6782 37.839 90.5918 37.839C89.9146 37.839 89.3156 37.7091 88.7947 37.4492C88.2738 37.1819 87.872 36.8144 87.5892 36.3466C87.3064 35.8788 87.165 35.3479 87.165 34.7538C87.165 34.1672 87.3027 33.64 87.578 33.1722C87.8608 32.697 88.244 32.3295 88.7277 32.0696C89.2189 31.8023 89.7658 31.6686 90.3685 31.6686C90.9564 31.6686 91.4885 31.7949 91.9647 32.0473C92.441 32.2998 92.813 32.6636 93.0809 33.1388C93.3562 33.6066 93.4939 34.1524 93.4939 34.7761ZM90.3797 32.9829C89.9853 32.9829 89.6542 33.0943 89.3863 33.317C89.1184 33.5398 88.9547 33.8442 88.8952 34.2304H91.8531C91.7936 33.8517 91.6299 33.5509 91.362 33.3282C91.0941 33.098 90.7667 32.9829 90.3797 32.9829Z" fill="#4F4F5B"></path>
  <path d="M103.674 33.6957C104.121 33.8368 104.471 34.0744 104.724 34.4086C104.977 34.7353 105.103 35.14 105.103 35.6226C105.103 36.3057 104.835 36.8329 104.299 37.2042C103.771 37.568 102.997 37.7499 101.978 37.7499H97.9371V29.9534H101.755C102.707 29.9534 103.436 30.1353 103.942 30.4991C104.456 30.863 104.712 31.3568 104.712 31.9805C104.712 32.3592 104.619 32.697 104.433 32.994C104.255 33.2911 104.002 33.5249 103.674 33.6957ZM99.7342 31.3122V33.15H101.531C101.978 33.15 102.316 33.072 102.547 32.9161C102.778 32.7601 102.893 32.53 102.893 32.2255C102.893 31.9211 102.778 31.6946 102.547 31.5461C102.316 31.3902 101.978 31.3122 101.531 31.3122H99.7342ZM101.844 36.3911C102.32 36.3911 102.677 36.3131 102.915 36.1572C103.161 36.0013 103.284 35.76 103.284 35.4332C103.284 34.7872 102.804 34.4642 101.844 34.4642H99.7342V36.3911H101.844Z" fill="#4F4F5B"></path>
  <path d="M106.349 31.7577H108.091V37.7499H106.349V31.7577ZM107.22 30.9224C106.9 30.9224 106.64 30.8296 106.439 30.6439C106.238 30.4583 106.137 30.2281 106.137 29.9534C106.137 29.6786 106.238 29.4485 106.439 29.2628C106.64 29.0772 106.9 28.9844 107.22 28.9844C107.54 28.9844 107.8 29.0735 108.001 29.2517C108.202 29.4299 108.303 29.6527 108.303 29.92C108.303 30.2096 108.202 30.4509 108.001 30.6439C107.8 30.8296 107.54 30.9224 107.22 30.9224Z" fill="#4F4F5B"></path>
  <path d="M109.707 29.4856H111.448V37.7499H109.707V29.4856Z" fill="#4F4F5B"></path>
  <path d="M119.181 29.4856V37.7499H117.518V37.0594C117.086 37.5792 116.461 37.839 115.642 37.839C115.077 37.839 114.563 37.7128 114.102 37.4604C113.648 37.2079 113.291 36.8478 113.031 36.38C112.77 35.9122 112.64 35.3701 112.64 34.7538C112.64 34.1375 112.77 33.5955 113.031 33.1277C113.291 32.6599 113.648 32.2998 114.102 32.0473C114.563 31.7949 115.077 31.6686 115.642 31.6686C116.409 31.6686 117.008 31.9099 117.44 32.3926V29.4856H119.181ZM115.944 36.4134C116.383 36.4134 116.747 36.2649 117.038 35.9679C117.328 35.6634 117.473 35.2588 117.473 34.7538C117.473 34.2489 117.328 33.8479 117.038 33.5509C116.747 33.2465 116.383 33.0943 115.944 33.0943C115.497 33.0943 115.129 33.2465 114.839 33.5509C114.549 33.8479 114.403 34.2489 114.403 34.7538C114.403 35.2588 114.549 35.6634 114.839 35.9679C115.129 36.2649 115.497 36.4134 115.944 36.4134Z" fill="#4F4F5B"></path>
  <path d="M126.842 31.7577V37.7499H125.19V37.0371C124.96 37.297 124.684 37.4975 124.364 37.6386C124.044 37.7722 123.698 37.839 123.326 37.839C122.537 37.839 121.912 37.6126 121.451 37.1596C120.99 36.7067 120.759 36.0347 120.759 35.1437V31.7577H122.5V34.8875C122.5 35.8528 122.906 36.3354 123.717 36.3354C124.134 36.3354 124.468 36.2018 124.721 35.9345C124.974 35.6597 125.101 35.255 125.101 34.7204V31.7577H126.842Z" fill="#4F4F5B"></path>
  <path d="M132.105 31.6686C132.85 31.6686 133.449 31.8914 133.902 32.3369C134.364 32.7824 134.595 33.4433 134.595 34.3195V37.7499H132.853V34.5868C132.853 34.1115 132.749 33.7588 132.541 33.5287C132.332 33.2911 132.031 33.1722 131.637 33.1722C131.198 33.1722 130.848 33.3096 130.587 33.5843C130.327 33.8517 130.197 34.2526 130.197 34.7872V37.7499H128.455V31.7577H130.119V32.4594C130.349 32.207 130.636 32.0139 130.978 31.8802C131.32 31.7392 131.696 31.6686 132.105 31.6686Z" fill="#4F4F5B"></path>
  <path d="M142.433 31.7577V36.7475C142.433 37.8465 142.147 38.6633 141.574 39.1979C141.001 39.7325 140.164 39.9998 139.062 39.9998C138.482 39.9998 137.931 39.9293 137.41 39.7882C136.889 39.6471 136.458 39.4429 136.116 39.1756L136.808 37.9282C137.061 38.1361 137.381 38.2994 137.768 38.4182C138.154 38.5445 138.541 38.6076 138.928 38.6076C139.531 38.6076 139.974 38.4702 140.257 38.1955C140.547 37.9282 140.692 37.5198 140.692 36.9703V36.7141C140.238 37.2116 139.606 37.4604 138.794 37.4604C138.244 37.4604 137.738 37.3416 137.276 37.1039C136.822 36.8589 136.462 36.5173 136.194 36.0793C135.926 35.6412 135.792 35.1362 135.792 34.5645C135.792 33.9927 135.926 33.4878 136.194 33.0497C136.462 32.6116 136.822 32.2738 137.276 32.0362C137.738 31.7911 138.244 31.6686 138.794 31.6686C139.665 31.6686 140.327 31.9545 140.781 32.5262V31.7577H142.433ZM139.14 36.0347C139.602 36.0347 139.978 35.901 140.268 35.6337C140.565 35.359 140.714 35.0026 140.714 34.5645C140.714 34.1264 140.565 33.7737 140.268 33.5064C139.978 33.2316 139.602 33.0943 139.14 33.0943C138.679 33.0943 138.3 33.2316 138.002 33.5064C137.704 33.7737 137.555 34.1264 137.555 34.5645C137.555 35.0026 137.704 35.359 138.002 35.6337C138.3 35.901 138.679 36.0347 139.14 36.0347Z" fill="#4F4F5B"></path>
  <path d="M152.16 36.4134V37.7499H146.802V36.703L149.86 33.0943H146.88V31.7577H152.059V32.8047L149.001 36.4134H152.16Z" fill="#4F4F5B"></path>
  <path d="M159.325 31.7577V37.7499H157.674V37.0371C157.443 37.297 157.168 37.4975 156.848 37.6386C156.528 37.7722 156.182 37.839 155.809 37.839C155.021 37.839 154.396 37.6126 153.934 37.1596C153.473 36.7067 153.242 36.0347 153.242 35.1437V31.7577H154.983V34.8875C154.983 35.8528 155.389 36.3354 156.2 36.3354C156.617 36.3354 156.952 36.2018 157.205 35.9345C157.458 35.6597 157.584 35.255 157.584 34.7204V31.7577H159.325Z" fill="#4F4F5B"></path>
  <path d="M168.629 31.6686C169.381 31.6686 169.976 31.8914 170.415 32.3369C170.862 32.775 171.085 33.4358 171.085 34.3195V37.7499H169.344V34.5868C169.344 34.1115 169.243 33.7588 169.042 33.5287C168.849 33.2911 168.57 33.1722 168.205 33.1722C167.796 33.1722 167.472 33.3059 167.234 33.5732C166.996 33.8331 166.877 34.2229 166.877 34.7427V37.7499H165.136V34.5868C165.136 33.6438 164.756 33.1722 163.997 33.1722C163.595 33.1722 163.275 33.3059 163.037 33.5732C162.799 33.8331 162.68 34.2229 162.68 34.7427V37.7499H160.939V31.7577H162.602V32.4483C162.825 32.1958 163.097 32.0028 163.417 31.8691C163.744 31.7355 164.101 31.6686 164.488 31.6686C164.912 31.6686 165.296 31.754 165.638 31.9248C165.98 32.0882 166.256 32.3295 166.464 32.6488C166.709 32.3369 167.018 32.0956 167.39 31.9248C167.77 31.754 168.183 31.6686 168.629 31.6686Z" fill="#4F4F5B"></path>
  <path d="M183.04 37.7499L183.029 33.072L180.729 36.9257H179.914L177.626 33.1722V37.7499H175.93V29.9534H177.425L180.35 34.7984L183.23 29.9534H184.714L184.736 37.7499H183.04Z" fill="#4F4F5B"></path>
  <path d="M186.467 31.7577H188.209V37.7499H186.467V31.7577ZM187.338 30.9224C187.018 30.9224 186.758 30.8296 186.557 30.6439C186.356 30.4583 186.255 30.2281 186.255 29.9534C186.255 29.6786 186.356 29.4485 186.557 29.2628C186.758 29.0772 187.018 28.9844 187.338 28.9844C187.658 28.9844 187.919 29.0735 188.119 29.2517C188.32 29.4299 188.421 29.6527 188.421 29.92C188.421 30.2096 188.32 30.4509 188.119 30.6439C187.919 30.8296 187.658 30.9224 187.338 30.9224Z" fill="#4F4F5B"></path>
  <path d="M193.698 37.4604C193.527 37.5866 193.315 37.6831 193.062 37.7499C192.816 37.8093 192.556 37.839 192.28 37.839C191.566 37.839 191.012 37.6571 190.617 37.2933C190.23 36.9294 190.037 36.3948 190.037 35.6894V33.2279H189.11V31.8914H190.037V30.4323H191.778V31.8914H193.274V33.2279H191.778V35.6671C191.778 35.9196 191.841 36.1164 191.968 36.2575C192.102 36.3911 192.288 36.4579 192.526 36.4579C192.801 36.4579 193.036 36.3837 193.229 36.2352L193.698 37.4604Z" fill="#4F4F5B"></path>
  <path d="M202.366 31.6686C203.118 31.6686 203.713 31.8914 204.152 32.3369C204.599 32.775 204.822 33.4358 204.822 34.3195V37.7499H203.081V34.5868C203.081 34.1115 202.98 33.7588 202.779 33.5287C202.586 33.2911 202.307 33.1722 201.942 33.1722C201.533 33.1722 201.209 33.3059 200.971 33.5732C200.733 33.8331 200.614 34.2229 200.614 34.7427V37.7499H198.872V34.5868C198.872 33.6438 198.493 33.1722 197.734 33.1722C197.332 33.1722 197.012 33.3059 196.774 33.5732C196.536 33.8331 196.417 34.2229 196.417 34.7427V37.7499H194.675V31.7577H196.339V32.4483C196.562 32.1958 196.833 32.0028 197.153 31.8691C197.481 31.7355 197.838 31.6686 198.225 31.6686C198.649 31.6686 199.032 31.754 199.375 31.9248C199.717 32.0882 199.992 32.3295 200.201 32.6488C200.446 32.3369 200.755 32.0956 201.127 31.9248C201.507 31.754 201.92 31.6686 202.366 31.6686Z" fill="#4F4F5B"></path>
  <path d="M208.805 31.6686C209.735 31.6686 210.449 31.8914 210.948 32.3369C211.446 32.775 211.696 33.4396 211.696 34.3306V37.7499H210.066V37.0037C209.739 37.5606 209.128 37.839 208.235 37.839C207.774 37.839 207.372 37.7611 207.03 37.6052C206.695 37.4492 206.438 37.2339 206.26 36.9591C206.081 36.6844 205.992 36.3726 205.992 36.0236C205.992 35.4667 206.2 35.0286 206.617 34.7093C207.041 34.39 207.692 34.2304 208.57 34.2304H209.954C209.954 33.8517 209.839 33.5621 209.608 33.3616C209.378 33.1537 209.032 33.0497 208.57 33.0497C208.25 33.0497 207.934 33.1017 207.622 33.2057C207.316 33.3022 207.056 33.4358 206.84 33.6066L206.215 32.3926C206.543 32.1624 206.933 31.9842 207.387 31.858C207.848 31.7317 208.321 31.6686 208.805 31.6686ZM208.671 36.6696C208.968 36.6696 209.233 36.6027 209.463 36.4691C209.694 36.328 209.858 36.1238 209.954 35.8565V35.2439H208.76C208.046 35.2439 207.688 35.4778 207.688 35.9456C207.688 36.1684 207.774 36.3466 207.945 36.4802C208.124 36.6064 208.366 36.6696 208.671 36.6696Z" fill="#4F4F5B"></path>
  <path d="M216.239 37.839C215.599 37.839 215.022 37.7091 214.509 37.4492C214.003 37.1819 213.605 36.8144 213.315 36.3466C213.032 35.8788 212.891 35.3479 212.891 34.7538C212.891 34.1598 213.032 33.6289 213.315 33.1611C213.605 32.6933 214.003 32.3295 214.509 32.0696C215.022 31.8023 215.599 31.6686 216.239 31.6686C216.872 31.6686 217.422 31.8023 217.891 32.0696C218.367 32.3295 218.713 32.7045 218.929 33.1945L217.579 33.9185C217.266 33.369 216.816 33.0943 216.228 33.0943C215.774 33.0943 215.398 33.2428 215.101 33.5398C214.803 33.8368 214.654 34.2415 214.654 34.7538C214.654 35.2662 214.803 35.6709 215.101 35.9679C215.398 36.2649 215.774 36.4134 216.228 36.4134C216.823 36.4134 217.273 36.1387 217.579 35.5892L218.929 36.3243C218.713 36.7995 218.367 37.1708 217.891 37.4381C217.422 37.7054 216.872 37.839 216.239 37.839Z" fill="#4F4F5B"></path>
  <path d="M223.538 31.6686C224.282 31.6686 224.881 31.8914 225.335 32.3369C225.797 32.7824 226.027 33.4433 226.027 34.3195V37.7499H224.286V34.5868C224.286 34.1115 224.182 33.7588 223.973 33.5287C223.765 33.2911 223.464 33.1722 223.069 33.1722C222.63 33.1722 222.281 33.3096 222.02 33.5843C221.76 33.8517 221.629 34.2526 221.629 34.7872V37.7499H219.888V29.4856H221.629V32.3815C221.86 32.1513 222.139 31.9768 222.467 31.858C222.794 31.7317 223.151 31.6686 223.538 31.6686Z" fill="#4F4F5B"></path>
  <path d="M233.553 34.7761C233.553 34.7984 233.542 34.9543 233.52 35.2439H228.977C229.059 35.6152 229.252 35.9085 229.557 36.1238C229.863 36.3391 230.242 36.4468 230.696 36.4468C231.009 36.4468 231.284 36.4023 231.522 36.3131C231.768 36.2166 231.994 36.0681 232.203 35.8676L233.129 36.87C232.564 37.516 231.738 37.839 230.651 37.839C229.974 37.839 229.375 37.7091 228.854 37.4492C228.333 37.1819 227.932 36.8144 227.649 36.3466C227.366 35.8788 227.225 35.3479 227.225 34.7538C227.225 34.1672 227.362 33.64 227.638 33.1722C227.92 32.697 228.304 32.3295 228.787 32.0696C229.278 31.8023 229.825 31.6686 230.428 31.6686C231.016 31.6686 231.548 31.7949 232.024 32.0473C232.501 32.2998 232.873 32.6636 233.14 33.1388C233.416 33.6066 233.553 34.1524 233.553 34.7761ZM230.439 32.9829C230.045 32.9829 229.714 33.0943 229.446 33.317C229.178 33.5398 229.014 33.8442 228.955 34.2304H231.913C231.853 33.8517 231.689 33.5509 231.422 33.3282C231.154 33.098 230.826 32.9829 230.439 32.9829Z" fill="#4F4F5B"></path>
  <path d="M238.363 31.6686C239.107 31.6686 239.706 31.8914 240.16 32.3369C240.621 32.7824 240.852 33.4433 240.852 34.3195V37.7499H239.111V34.5868C239.111 34.1115 239.006 33.7588 238.798 33.5287C238.59 33.2911 238.288 33.1722 237.894 33.1722C237.455 33.1722 237.105 33.3096 236.845 33.5843C236.584 33.8517 236.454 34.2526 236.454 34.7872V37.7499H234.713V31.7577H236.376V32.4594C236.607 32.207 236.893 32.0139 237.235 31.8802C237.578 31.7392 237.953 31.6686 238.363 31.6686Z" fill="#4F4F5B"></path>
</svg>
